<svg width="142" height="142" viewBox="0 0 142 142" fill="none" xmlns="http://www.w3.org/2000/svg">
<circle cx="70.9999" cy="70.9999" r="70.9999" fill="#0084FF" fill-opacity="0.2"/>
<circle cx="70.4975" cy="71.5022" r="54.0952" transform="rotate(-0.347239 70.4975 71.5022)" fill="#0084FF" fill-opacity="0.5"/>
<path d="M57.7225 66.5938C58.1094 66.5938 58.4803 66.7427 58.7538 67.0076C59.0273 67.2726 59.181 67.632 59.181 68.0067V70.8325C59.181 73.8302 60.4103 76.7052 62.5984 78.8249C64.7865 80.9447 67.7542 82.1355 70.8487 82.1355C73.9431 82.1355 76.9108 80.9447 79.099 78.8249C81.2871 76.7052 82.5163 73.8302 82.5163 70.8325V68.0067C82.5163 67.632 82.67 67.2726 82.9435 67.0076C83.217 66.7427 83.588 66.5938 83.9748 66.5938C84.3616 66.5938 84.7326 66.7427 85.0061 67.0076C85.2796 67.2726 85.4333 67.632 85.4333 68.0067V70.8325C85.4333 74.3351 84.0904 77.7129 81.665 80.3105C79.2395 82.9081 75.9046 84.5404 72.3071 84.8906V90.6128H81.0579C81.4447 90.6128 81.8157 90.7617 82.0892 91.0266C82.3627 91.2916 82.5163 91.651 82.5163 92.0257C82.5163 92.4004 82.3627 92.7598 82.0892 93.0248C81.8157 93.2897 81.4447 93.4386 81.0579 93.4386H60.6395C60.2527 93.4386 59.8817 93.2897 59.6082 93.0248C59.3347 92.7598 59.181 92.4004 59.181 92.0257C59.181 91.651 59.3347 91.2916 59.6082 91.0266C59.8817 90.7617 60.2527 90.6128 60.6395 90.6128H69.3902V84.8906C65.7927 84.5404 62.4578 82.9081 60.0324 80.3105C57.607 77.7129 56.264 74.3351 56.2641 70.8325V68.0067C56.2641 67.632 56.4177 67.2726 56.6913 67.0076C56.9648 66.7427 57.3357 66.5938 57.7225 66.5938Z" fill="white"/>
<path d="M76.6827 70.8325C76.6827 72.3313 76.0681 73.7688 74.974 74.8287C73.8799 75.8886 72.3961 76.484 70.8489 76.484C69.3016 76.484 67.8178 75.8886 66.7237 74.8287C65.6297 73.7688 65.015 72.3313 65.015 70.8325V56.7036C65.015 55.2048 65.6297 53.7673 66.7237 52.7074C67.8178 51.6475 69.3016 51.0521 70.8489 51.0521C72.3961 51.0521 73.8799 51.6475 74.974 52.7074C76.0681 53.7673 76.6827 55.2048 76.6827 56.7036V70.8325ZM70.8489 48.2264C68.528 48.2264 66.3022 49.1195 64.6611 50.7093C63.0201 52.2991 62.0981 54.4553 62.0981 56.7036V70.8325C62.0981 73.0808 63.0201 75.237 64.6611 76.8268C66.3022 78.4166 68.528 79.3098 70.8489 79.3098C73.1697 79.3098 75.3955 78.4166 77.0366 76.8268C78.6777 75.237 79.5996 73.0808 79.5996 70.8325V56.7036C79.5996 54.4553 78.6777 52.2991 77.0366 50.7093C75.3955 49.1195 73.1697 48.2264 70.8489 48.2264V48.2264Z" fill="white"/>
</svg>
