<svg width="38" height="74" viewBox="0 0 38 74" fill="none" xmlns="http://www.w3.org/2000/svg">
<path d="M12.2277 25.3757C12.2277 11.6426 23.3606 0.509803 37.0936 0.509803V36.4999H12.2277V25.3757Z" fill="#E9E9EB" stroke="#E9E9EB" stroke-width="1.01948"/>
<rect x="12.2277" y="36.4999" width="24.8659" height="1.00013" fill="#E9E9EB" stroke="#E9E9EB" stroke-width="1.01948"/>
<path fill-rule="evenodd" clip-rule="evenodd" d="M12.6787 53.3648C12.3825 51.8302 12.2274 50.2454 12.2274 48.6243V37.5001H37.0933V73.4902C31.0718 73.4902 25.5503 71.3499 21.2479 67.7886C16.9556 70.6481 10.0729 73.3662 1.75756 71.8543C4.04784 70.8727 12.8818 64.9834 12.5546 53.2049C12.5943 53.2594 12.6357 53.3127 12.6787 53.3648Z" fill="#E9E9EB"/>
<path d="M12.6787 53.3648L12.2857 53.6895L13.1793 53.2682L12.6787 53.3648ZM12.2274 37.5001V36.9902H11.7176V37.5001H12.2274ZM37.0933 37.5001H37.6031V36.9902H37.0933V37.5001ZM37.0933 73.4902V74H37.6031V73.4902H37.0933ZM21.2479 67.7886L21.5729 67.3958L21.2808 67.154L20.9652 67.3643L21.2479 67.7886ZM1.75756 71.8543L1.55674 71.3857L-5.16245e-05 72.0529L1.66636 72.3559L1.75756 71.8543ZM12.5546 53.2049L12.9669 52.905L11.9993 51.5745L12.045 53.219L12.5546 53.2049ZM11.7176 48.6243C11.7176 50.278 11.8758 51.8952 12.1781 53.4615L13.1793 53.2682C12.8892 51.7653 12.7372 50.2128 12.7372 48.6243H11.7176ZM11.7176 37.5001V48.6243H12.7372V37.5001H11.7176ZM37.0933 36.9902H12.2274V38.0099H37.0933V36.9902ZM37.6031 73.4902V37.5001H36.5835V73.4902H37.6031ZM20.9228 68.1813C25.3132 71.8155 30.9488 74 37.0933 74V72.9804C31.1948 72.9804 25.7873 70.8843 21.5729 67.3958L20.9228 68.1813ZM1.66636 72.3559C10.1441 73.8973 17.1592 71.125 21.5305 68.2128L20.9652 67.3643C16.7519 70.1712 10.0018 72.8351 1.84876 71.3527L1.66636 72.3559ZM12.045 53.219C12.2047 58.9676 10.1317 63.2698 7.73954 66.26C5.33739 69.2627 2.62378 70.9284 1.55674 71.3857L1.95838 72.3229C3.18162 71.7986 6.03012 70.0289 8.53573 66.8969C11.0513 63.7524 13.2317 59.2207 13.0642 53.1907L12.045 53.219ZM13.0717 53.0401C13.0353 52.996 13.0003 52.9509 12.9669 52.905L12.1423 53.5047C12.1882 53.5679 12.2361 53.6295 12.2857 53.6895L13.0717 53.0401Z" fill="#E9E9EB"/>
</svg>
