<svg width="63" height="142" viewBox="0 0 63 142" fill="none" xmlns="http://www.w3.org/2000/svg">
<rect width="63" height="141.632" rx="3.74965" fill="black" fill-opacity="0.73"/>
<path d="M33.4375 112.751C33.4373 112.593 33.3856 112.437 33.2884 112.303C33.1912 112.169 33.0525 112.061 32.8882 111.992C32.7239 111.923 32.5406 111.896 32.3595 111.914C32.1784 111.932 32.0067 111.994 31.8643 112.093L27.2859 115.283H22.7811C22.5242 115.283 22.2778 115.372 22.0961 115.53C21.9144 115.688 21.8123 115.903 21.8123 116.127V122.877C21.8123 123.1 21.9144 123.315 22.0961 123.473C22.2778 123.632 22.5242 123.72 22.7811 123.72H27.2859L31.8643 126.91C32.0067 127.009 32.1784 127.071 32.3595 127.089C32.5406 127.107 32.7239 127.08 32.8882 127.011C33.0525 126.942 33.1912 126.835 33.2884 126.7C33.3856 126.566 33.4373 126.41 33.4375 126.252V112.751ZM39.2986 119.502C39.3 120.499 39.0752 121.487 38.637 122.408C38.1987 123.33 37.5557 124.167 36.7449 124.871L35.3751 123.678C36.0057 123.13 36.5058 122.479 36.8466 121.763C37.1874 121.046 37.3623 120.277 37.361 119.502C37.3622 118.726 37.1873 117.957 36.8465 117.241C36.5057 116.524 36.0056 115.873 35.3751 115.325L36.7449 114.132C37.5557 114.836 38.1987 115.673 38.637 116.595C39.0752 117.516 39.3 118.504 39.2986 119.502Z" fill="white"/>
<rect x="28.875" y="11.8853" width="5.25" height="86.1679" rx="2.62496" fill="#C4C4C4" fill-opacity="0.3"/>
<rect x="28.875" y="62.3975" width="5.25008" height="35.6562" rx="2.625" fill="white"/>
</svg>
