<svg width="1920" height="88" viewBox="0 0 1920 88" fill="none" xmlns="http://www.w3.org/2000/svg">
<path d="M92.4976 59.8762C92.3981 60.4733 92.2986 61.3691 92.7962 62.7624C94.3886 67.042 99.4644 69.5302 100.559 70.0278C104.739 72.0183 108.521 72.1179 110.213 72.1179C111.009 72.1179 114.194 72.1179 118.175 70.824C119.668 70.3264 121.858 69.6297 124.147 67.9378C126.336 66.3454 127.232 64.8525 127.531 64.4544C127.531 64.4544 127.531 64.4544 127.531 64.3548C127.829 63.8572 128.825 62.2648 128.526 60.2743C128.526 59.9757 128.128 58.0847 126.536 56.8904C126.536 56.8904 123.848 55.0989 120.863 56.6913C120.763 56.6913 120.663 56.7909 120.663 56.7909C120.464 56.9899 120.265 57.0895 120.265 57.0895C119.967 57.388 118.872 58.3833 118.772 58.4828C118.772 58.4828 118.076 59.08 116.284 60.2743C116.085 60.3738 115.886 60.5729 115.886 60.5729L115.787 60.6724C115.289 60.971 114.294 61.4686 113.1 61.7672C112.204 61.9662 110.313 62.5634 107.924 61.9662C105.934 61.5681 104.54 60.5729 103.943 60.1748C103.047 59.5776 102.948 59.279 100.957 57.6866C99.4644 56.4923 99.1659 56.2932 98.6682 56.1937C96.8768 55.5966 95.1848 56.4923 94.9858 56.6913C94.7867 56.5918 92.8957 57.6866 92.4976 59.8762Z" fill="white"/>
<path d="M127.531 33.998C127.531 29.2208 127.63 24.344 127.63 19.5667C127.531 19.1686 127.332 18.671 126.834 18.0739C126.536 17.5762 125.739 16.581 124.346 16.0833C124.047 15.9838 122.953 15.6852 121.758 16.0833C120.166 16.581 119.469 17.9743 119.27 18.2729C118.972 18.7705 118.872 19.2682 118.872 19.5667C118.872 19.7658 118.872 19.9648 118.872 20.1639C116.185 18.5715 113.1 17.5762 109.716 17.5762C99.9621 17.6758 92 25.6378 92 35.4909C92 45.344 99.9621 53.2065 109.716 53.2065C119.469 53.2065 127.431 45.2444 127.431 35.4909C127.531 34.9933 127.431 34.4956 127.531 33.998ZM109.716 43.453C105.237 43.453 101.754 39.87 101.754 35.3914C101.754 30.9127 105.336 27.3298 109.815 27.3298C114.294 27.3298 117.877 30.9127 117.877 35.3914C117.877 39.87 114.194 43.453 109.716 43.453Z" fill="white"/>
<path d="M154.489 31.7637C155.961 31.7637 157.256 32.0607 158.373 32.6545C159.489 33.2247 160.368 33.9729 161.009 34.8994V32.0844H166.033V51.9672C166.033 53.7963 165.665 55.4235 164.929 56.8488C164.192 58.2978 163.088 59.438 161.615 60.2694C160.142 61.1246 158.361 61.5522 156.27 61.5522C153.467 61.5522 151.163 60.8989 149.358 59.5924C147.576 58.2859 146.566 56.5043 146.329 54.2476H151.282C151.543 55.1503 152.101 55.8629 152.956 56.3855C153.835 56.9319 154.893 57.2051 156.128 57.2051C157.577 57.2051 158.753 56.7656 159.655 55.8867C160.558 55.0315 161.009 53.725 161.009 51.9672V48.9028C160.368 49.8292 159.477 50.6013 158.337 51.2189C157.22 51.8365 155.938 52.1453 154.489 52.1453C152.826 52.1453 151.306 51.7177 149.928 50.8626C148.55 50.0074 147.457 48.8078 146.65 47.2637C145.866 45.6959 145.474 43.9024 145.474 41.8833C145.474 39.8879 145.866 38.1181 146.65 36.5741C147.457 35.03 148.538 33.8423 149.892 33.0109C151.27 32.1795 152.802 31.7637 154.489 31.7637ZM161.009 41.9545C161.009 40.743 160.772 39.7097 160.297 38.8545C159.822 37.9756 159.18 37.3105 158.373 36.8591C157.565 36.384 156.698 36.1465 155.771 36.1465C154.845 36.1465 153.99 36.3722 153.206 36.8235C152.422 37.2748 151.781 37.94 151.282 38.8189C150.807 39.6741 150.569 40.6955 150.569 41.8833C150.569 43.071 150.807 44.1162 151.282 45.0189C151.781 45.8978 152.422 46.5748 153.206 47.0499C154.014 47.525 154.869 47.7626 155.771 47.7626C156.698 47.7626 157.565 47.5369 158.373 47.0856C159.18 46.6105 159.822 45.9453 160.297 45.0902C160.772 44.2112 161.009 43.166 161.009 41.9545Z" fill="white"/>
<path d="M179.671 52.1453C177.771 52.1453 176.06 51.7296 174.54 50.8982C173.02 50.043 171.82 48.8434 170.941 47.2993C170.086 45.7553 169.658 43.9737 169.658 41.9545C169.658 39.9354 170.098 38.1538 170.977 36.6097C171.88 35.0657 173.103 33.8779 174.647 33.0465C176.191 32.1913 177.913 31.7637 179.814 31.7637C181.714 31.7637 183.436 32.1913 184.98 33.0465C186.524 33.8779 187.736 35.0657 188.615 36.6097C189.517 38.1538 189.969 39.9354 189.969 41.9545C189.969 43.9737 189.506 45.7553 188.579 47.2993C187.676 48.8434 186.441 50.043 184.873 50.8982C183.329 51.7296 181.595 52.1453 179.671 52.1453ZM179.671 47.7982C180.574 47.7982 181.417 47.5844 182.201 47.1568C183.009 46.7055 183.65 46.0403 184.125 45.1614C184.6 44.2825 184.838 43.2135 184.838 41.9545C184.838 40.0779 184.339 38.6407 183.341 37.643C182.367 36.6216 181.168 36.1109 179.742 36.1109C178.317 36.1109 177.117 36.6216 176.144 37.643C175.193 38.6407 174.718 40.0779 174.718 41.9545C174.718 43.8312 175.181 45.2802 176.108 46.3016C177.058 47.2993 178.246 47.7982 179.671 47.7982Z" fill="white"/>
<path d="M202.394 52.1453C200.493 52.1453 198.783 51.7296 197.263 50.8982C195.742 50.043 194.543 48.8434 193.664 47.2993C192.809 45.7553 192.381 43.9737 192.381 41.9545C192.381 39.9354 192.82 38.1538 193.699 36.6097C194.602 35.0657 195.825 33.8779 197.369 33.0465C198.913 32.1913 200.636 31.7637 202.536 31.7637C204.436 31.7637 206.159 32.1913 207.703 33.0465C209.247 33.8779 210.458 35.0657 211.337 36.6097C212.24 38.1538 212.691 39.9354 212.691 41.9545C212.691 43.9737 212.228 45.7553 211.302 47.2993C210.399 48.8434 209.164 50.043 207.596 50.8982C206.052 51.7296 204.318 52.1453 202.394 52.1453ZM202.394 47.7982C203.296 47.7982 204.14 47.5844 204.923 47.1568C205.731 46.7055 206.372 46.0403 206.848 45.1614C207.323 44.2825 207.56 43.2135 207.56 41.9545C207.56 40.0779 207.061 38.6407 206.064 37.643C205.09 36.6216 203.89 36.1109 202.465 36.1109C201.04 36.1109 199.84 36.6216 198.866 37.643C197.916 38.6407 197.441 40.0779 197.441 41.9545C197.441 43.8312 197.904 45.2802 198.83 46.3016C199.781 47.2993 200.968 47.7982 202.394 47.7982Z" fill="white"/>
<path d="M215.068 41.8833C215.068 39.8879 215.46 38.1181 216.244 36.5741C217.051 35.03 218.144 33.8423 219.522 33.0109C220.9 32.1795 222.432 31.7637 224.118 31.7637C225.401 31.7637 226.624 32.0488 227.788 32.6189C228.952 33.1653 229.879 33.9017 230.568 34.8281V25.4569H235.627V51.8246H230.568V48.9028C229.95 49.8767 229.083 50.6606 227.967 51.2545C226.85 51.8484 225.555 52.1453 224.083 52.1453C222.42 52.1453 220.9 51.7177 219.522 50.8626C218.144 50.0074 217.051 48.8078 216.244 47.2637C215.46 45.6959 215.068 43.9024 215.068 41.8833ZM230.603 41.9545C230.603 40.743 230.366 39.7097 229.891 38.8545C229.416 37.9756 228.774 37.3105 227.967 36.8591C227.159 36.384 226.292 36.1465 225.365 36.1465C224.439 36.1465 223.584 36.3722 222.8 36.8235C222.016 37.2748 221.375 37.94 220.876 38.8189C220.401 39.6741 220.163 40.6955 220.163 41.8833C220.163 43.071 220.401 44.1162 220.876 45.0189C221.375 45.8978 222.016 46.5748 222.8 47.0499C223.608 47.525 224.463 47.7626 225.365 47.7626C226.292 47.7626 227.159 47.5369 227.967 47.0856C228.774 46.6105 229.416 45.9453 229.891 45.0902C230.366 44.2112 230.603 43.166 230.603 41.9545Z" fill="white"/>
<path d="M248.054 52.1453C246.438 52.1453 244.989 51.8603 243.706 51.2901C242.424 50.6963 241.402 49.9005 240.642 48.9028C239.906 47.9051 239.502 46.8005 239.431 45.589H244.455C244.55 46.3492 244.918 46.9787 245.559 47.4775C246.224 47.9764 247.044 48.2258 248.018 48.2258C248.968 48.2258 249.705 48.0357 250.227 47.6557C250.774 47.2756 251.047 46.7886 251.047 46.1948C251.047 45.5534 250.714 45.0783 250.049 44.7695C249.408 44.4369 248.374 44.0806 246.949 43.7005C245.476 43.3442 244.265 42.976 243.315 42.5959C242.388 42.2158 241.58 41.6338 240.892 40.8499C240.226 40.066 239.894 39.0089 239.894 37.6787C239.894 36.586 240.203 35.5883 240.82 34.6856C241.462 33.7829 242.364 33.0703 243.528 32.5477C244.716 32.025 246.106 31.7637 247.697 31.7637C250.049 31.7637 251.926 32.3576 253.327 33.5454C254.729 34.7093 255.501 36.289 255.643 38.2844H250.869C250.797 37.5005 250.465 36.8829 249.871 36.4316C249.301 35.9565 248.529 35.7189 247.555 35.7189C246.652 35.7189 245.951 35.8852 245.452 36.2178C244.977 36.5503 244.74 37.0135 244.74 37.6074C244.74 38.2725 245.072 38.7833 245.738 39.1396C246.403 39.4722 247.436 39.8166 248.837 40.1729C250.263 40.5292 251.439 40.8974 252.365 41.2775C253.292 41.6576 254.087 42.2515 254.752 43.0591C255.441 43.843 255.798 44.8882 255.821 46.1948C255.821 47.335 255.501 48.3564 254.859 49.2591C254.242 50.1618 253.339 50.8744 252.151 51.397C250.987 51.8959 249.621 52.1453 248.054 52.1453Z" fill="white"/>
<path d="M264.905 34.935C265.546 34.0323 266.425 33.284 267.542 32.6902C268.682 32.0726 269.976 31.7637 271.425 31.7637C273.112 31.7637 274.632 32.1795 275.986 33.0109C277.364 33.8423 278.445 35.03 279.229 36.5741C280.037 38.0944 280.44 39.8641 280.44 41.8833C280.44 43.9024 280.037 45.6959 279.229 47.2637C278.445 48.8078 277.364 50.0074 275.986 50.8626C274.632 51.7177 273.112 52.1453 271.425 52.1453C269.976 52.1453 268.694 51.8484 267.577 51.2545C266.484 50.6606 265.594 49.9124 264.905 49.0097V61.2315H259.916V32.0844H264.905V34.935ZM275.345 41.8833C275.345 40.6955 275.096 39.6741 274.597 38.8189C274.122 37.94 273.48 37.2748 272.673 36.8235C271.889 36.3722 271.034 36.1465 270.107 36.1465C269.204 36.1465 268.349 36.384 267.542 36.8591C266.758 37.3105 266.116 37.9756 265.617 38.8545C265.142 39.7335 264.905 40.7668 264.905 41.9545C264.905 43.1423 265.142 44.1756 265.617 45.0545C266.116 45.9334 266.758 46.6105 267.542 47.0856C268.349 47.5369 269.204 47.7626 270.107 47.7626C271.034 47.7626 271.889 47.525 272.673 47.0499C273.48 46.5748 274.122 45.8978 274.597 45.0189C275.096 44.14 275.345 43.0948 275.345 41.8833Z" fill="white"/>
<path d="M282.783 41.8833C282.783 39.8879 283.175 38.1181 283.959 36.5741C284.766 35.03 285.847 33.8423 287.201 33.0109C288.579 32.1795 290.111 31.7637 291.798 31.7637C293.27 31.7637 294.553 32.0607 295.646 32.6545C296.762 33.2484 297.653 33.9967 298.318 34.8994V32.0844H303.342V51.8246H298.318V48.9384C297.677 49.8649 296.786 50.6369 295.646 51.2545C294.529 51.8484 293.235 52.1453 291.762 52.1453C290.099 52.1453 288.579 51.7177 287.201 50.8626C285.847 50.0074 284.766 48.8078 283.959 47.2637C283.175 45.6959 282.783 43.9024 282.783 41.8833ZM298.318 41.9545C298.318 40.743 298.081 39.7097 297.606 38.8545C297.131 37.9756 296.489 37.3105 295.681 36.8591C294.874 36.384 294.007 36.1465 293.08 36.1465C292.154 36.1465 291.299 36.3722 290.515 36.8235C289.731 37.2748 289.09 37.94 288.591 38.8189C288.116 39.6741 287.878 40.6955 287.878 41.8833C287.878 43.071 288.116 44.1162 288.591 45.0189C289.09 45.8978 289.731 46.5748 290.515 47.0499C291.322 47.525 292.178 47.7626 293.08 47.7626C294.007 47.7626 294.874 47.5369 295.681 47.0856C296.489 46.6105 297.131 45.9453 297.606 45.0902C298.081 44.2112 298.318 43.166 298.318 41.9545Z" fill="white"/>
<path d="M306.932 41.9545C306.932 39.9116 307.347 38.13 308.179 36.6097C309.01 35.0657 310.162 33.8779 311.635 33.0465C313.108 32.1913 314.795 31.7637 316.695 31.7637C319.142 31.7637 321.161 32.3814 322.752 33.6166C324.368 34.8281 325.449 36.5385 325.995 38.7476H320.614C320.329 37.8925 319.842 37.2273 319.154 36.7522C318.488 36.2534 317.657 36.004 316.659 36.004C315.234 36.004 314.106 36.5266 313.274 37.5718C312.443 38.5932 312.027 40.0542 312.027 41.9545C312.027 43.8312 312.443 45.2921 313.274 46.3373C314.106 47.3587 315.234 47.8695 316.659 47.8695C318.678 47.8695 319.997 46.9668 320.614 45.1614H325.995C325.449 47.2993 324.368 48.9978 322.752 50.2568C321.137 51.5158 319.118 52.1453 316.695 52.1453C314.795 52.1453 313.108 51.7296 311.635 50.8982C310.162 50.043 309.01 48.8553 308.179 47.335C307.347 45.7909 306.932 43.9974 306.932 41.9545Z" fill="white"/>
<path d="M348 41.5269C348 42.2396 347.952 42.881 347.857 43.4511H333.426C333.545 44.8764 334.044 45.9928 334.923 46.8005C335.802 47.6082 336.883 48.012 338.166 48.012C340.018 48.012 341.337 47.2162 342.121 45.6246H347.501C346.931 47.525 345.838 49.0928 344.223 50.3281C342.608 51.5396 340.624 52.1453 338.272 52.1453C336.372 52.1453 334.662 51.7296 333.141 50.8982C331.645 50.043 330.469 48.8434 329.614 47.2993C328.782 45.7553 328.367 43.9737 328.367 41.9545C328.367 39.9116 328.782 38.1181 329.614 36.5741C330.445 35.03 331.609 33.8423 333.106 33.0109C334.602 32.1795 336.325 31.7637 338.272 31.7637C340.149 31.7637 341.824 32.1676 343.297 32.9752C344.793 33.7829 345.945 34.935 346.753 36.4316C347.584 37.9043 348 39.6028 348 41.5269ZM342.833 40.1017C342.81 38.8189 342.346 37.7975 341.444 37.0373C340.541 36.2534 339.436 35.8614 338.13 35.8614C336.895 35.8614 335.849 36.2415 334.994 37.0017C334.163 37.7381 333.652 38.7714 333.462 40.1017H342.833Z" fill="white"/>
</svg>
