<svg width="58" height="58" viewBox="0 0 58 58" fill="none" xmlns="http://www.w3.org/2000/svg">
<path fill-rule="evenodd" clip-rule="evenodd" d="M14.4998 7.24998C13.1651 7.24998 12.0831 8.33196 12.0831 9.66665V48.3333C12.0831 49.668 13.1651 50.75 14.4998 50.75H24.1664C25.5011 50.75 26.5831 49.668 26.5831 48.3333V9.66665C26.5831 8.33196 25.5011 7.24998 24.1664 7.24998H14.4998ZM16.9164 45.9166V12.0833H21.7498V45.9166H16.9164Z" fill="white"/>
<path fill-rule="evenodd" clip-rule="evenodd" d="M33.8331 7.24998C32.4984 7.24998 31.4164 8.33196 31.4164 9.66665V48.3333C31.4164 49.668 32.4984 50.75 33.8331 50.75H43.4998C44.8345 50.75 45.9164 49.668 45.9164 48.3333V9.66665C45.9164 8.33196 44.8345 7.24998 43.4998 7.24998H33.8331ZM36.2498 45.9166V12.0833H41.0831V45.9166H36.2498Z" fill="white"/>
</svg>
