<svg width="26" height="74" viewBox="0 0 26 74" fill="none" xmlns="http://www.w3.org/2000/svg">
<path d="M0.509834 25.3757C0.509834 11.6427 11.6427 0.509811 25.3757 0.509811V36.4999H0.509834V25.3757Z" fill="#E9E9EB" stroke="#E9E9EB" stroke-width="1.01948"/>
<rect x="0.509834" y="36.4999" width="24.8659" height="1.00013" fill="#E9E9EB" stroke="#E9E9EB" stroke-width="1.01948"/>
<path d="M0.509834 48.6243C0.509834 62.3574 11.6427 73.4902 25.3757 73.4902V37.5001H0.509834V48.6243Z" fill="#E9E9EB"/>
<path d="M25.3757 37.5001H25.8856V36.9903H25.3757V37.5001ZM0.509834 37.5001V36.9903H2.34874e-05V37.5001H0.509834ZM25.8856 73.4902V37.5001H24.8659V73.4902H25.8856ZM25.3757 36.9903H0.509834V38.0099H25.3757V36.9903ZM2.34874e-05 37.5001V48.6243H1.01964V37.5001H2.34874e-05ZM25.3757 72.9804C11.9242 72.9804 1.01964 62.0758 1.01964 48.6243H2.34874e-05C2.34874e-05 62.6389 11.3611 74 25.3757 74V72.9804Z" fill="#E9E9EB"/>
</svg>
