<svg width="19" height="19" viewBox="0 0 19 19" fill="none" xmlns="http://www.w3.org/2000/svg">
<path fill-rule="evenodd" clip-rule="evenodd" d="M19 9.49999C19 9.79458 18.8679 10.0572 18.6617 10.228C18.6039 10.2759 18.5402 10.3166 18.472 10.3487L1.29164 18.9077C0.958855 19.0735 0.561975 19.0123 0.290374 18.7533C0.0187722 18.4943 -0.0725117 18.09 0.0600776 17.7333L3.12058 9.49999L0.0600788 1.26668C-0.0725111 0.909983 0.0187722 0.505687 0.290373 0.246696C0.561975 -0.0122959 0.958854 -0.0734979 1.29164 0.0922912L18.472 8.65126C18.5406 8.68358 18.6046 8.72455 18.6627 8.77282C18.7054 8.80826 18.7447 8.84747 18.7802 8.88987C18.9171 9.05336 19 9.26666 19 9.49999ZM14.1517 8.56793L2.55729 2.79177L4.70441 8.56793L14.1517 8.56793ZM4.70441 10.4321L14.1517 10.4321L2.55729 16.2082L4.70441 10.4321Z" fill="white"/>
</svg>
