<svg width="38" height="92" viewBox="0 0 38 92" fill="none" xmlns="http://www.w3.org/2000/svg">
<path d="M25.4493 25.4495C25.4493 11.6765 14.284 0.511294 0.511026 0.511294V36.6061H25.4493V25.4495Z" fill="#2E9DFB" stroke="#2E9DFB" stroke-width="1.01948"/>
<rect width="24.8626" height="18.7308" transform="matrix(-1.00304 0 0 1.00304 25.4493 36.6061)" fill="#2E9DFB" stroke="#2E9DFB" stroke-width="1.01948"/>
<path fill-rule="evenodd" clip-rule="evenodd" d="M24.997 71.3048C25.294 69.7657 25.4496 68.1763 25.4496 66.5505V55.3939H0.511363V91.4887C6.55034 91.4887 12.088 89.3422 16.4029 85.7705C20.7077 88.6383 27.6103 91.3643 35.9499 89.848C33.6529 88.8636 24.7933 82.9572 25.1214 71.1443C25.0816 71.1991 25.0401 71.2525 24.997 71.3048Z" fill="#2E9DFB"/>
<path d="M24.997 71.3048L25.3911 71.6304L24.4949 71.2079L24.997 71.3048ZM25.4496 55.3939V54.8826H25.9609V55.3939H25.4496ZM0.511363 55.3939H7.26998e-05V54.8826H0.511363V55.3939ZM0.511363 91.4887V92H7.26998e-05V91.4887H0.511363ZM16.4029 85.7705L16.0769 85.3766L16.3698 85.1341L16.6864 85.345L16.4029 85.7705ZM35.9499 89.848L36.1513 89.3781L37.7126 90.0472L36.0413 90.3511L35.9499 89.848ZM25.1214 71.1443L24.7079 70.8436L25.6783 69.5093L25.6325 71.1585L25.1214 71.1443ZM25.9609 66.5505C25.9609 68.209 25.8022 69.8309 25.499 71.4017L24.4949 71.2079C24.7859 69.7006 24.9383 68.1436 24.9383 66.5505H25.9609ZM25.9609 55.3939V66.5505H24.9383V55.3939H25.9609ZM0.511363 54.8826H25.4496V55.9052H0.511363V54.8826ZM7.26998e-05 91.4887V55.3939H1.02266V91.4887H7.26998e-05ZM16.7289 86.1644C12.3257 89.8091 6.6737 92 0.511363 92V90.9774C6.42697 90.9774 11.8502 88.8752 16.0769 85.3766L16.7289 86.1644ZM36.0413 90.3511C27.5389 91.897 20.5034 89.1166 16.1194 86.196L16.6864 85.345C20.9119 88.16 27.6817 90.8317 35.8584 89.345L36.0413 90.3511ZM25.6325 71.1585C25.4724 76.9238 27.5514 81.2386 29.9505 84.2375C32.3596 87.2489 35.0811 88.9194 36.1513 89.3781L35.7485 90.318C34.5217 89.7922 31.6649 88.0174 29.152 84.8763C26.6291 81.7226 24.4423 77.1777 24.6103 71.1302L25.6325 71.1585ZM24.6028 70.9791C24.6394 70.9349 24.6744 70.8897 24.7079 70.8436L25.5349 71.4451C25.4888 71.5084 25.4409 71.5702 25.3911 71.6304L24.6028 70.9791Z" fill="#2E9DFB"/>
</svg>
