<svg width="26" height="23" viewBox="0 0 26 23" fill="none" xmlns="http://www.w3.org/2000/svg">
<path d="M11.2839 1.39226L21.9579 12.0662C24.0091 14.1174 24.0091 17.4403 21.9579 19.4915C19.9066 21.5428 16.5838 21.5428 14.5325 19.4915L2.93044 7.88943C1.64957 6.60856 1.64957 4.52946 2.93044 3.24859C4.21131 1.96772 6.29041 1.96772 7.57128 3.24859L17.317 12.9944C17.8275 13.5048 17.8275 14.3402 17.317 14.8507C16.8065 15.3612 15.9712 15.3612 15.4607 14.8507L6.64311 6.0331L5.25086 7.42535L14.0685 16.2429C15.3493 17.5238 17.4284 17.5238 18.7093 16.2429C19.9902 14.9621 19.9902 12.883 18.7093 11.6021L8.96353 1.85634C6.91228 -0.194909 3.58944 -0.194909 1.53819 1.85634C-0.513064 3.90759 -0.513064 7.23043 1.53819 9.28168L13.1403 20.8838C15.9619 23.7054 20.5285 23.7054 23.3501 20.8838C26.1718 18.0622 26.1718 13.4956 23.3501 10.6739L12.6762 6.06943e-06L11.2839 1.39226Z" fill="#6D6E71"/>
</svg>
