<svg width="142" height="142" viewBox="0 0 142 142" fill="none" xmlns="http://www.w3.org/2000/svg">
<circle cx="71" cy="71" r="71" fill="#0084FF" fill-opacity="0.2"/>
<circle cx="70.4976" cy="71.5023" r="54.0952" transform="rotate(-0.347239 70.4976 71.5023)" fill="#0084FF" fill-opacity="0.5"/>
<path fill-rule="evenodd" clip-rule="evenodd" d="M49.4464 50.2359C46.9911 50.2359 44.6364 51.2112 42.9002 52.9474C41.1641 54.6836 40.1887 57.0383 40.1887 59.4936V84.1809C40.1887 86.6362 41.1641 88.991 42.9002 90.7272C44.6364 92.4633 46.9911 93.4387 49.4464 93.4387H80.3056C82.7609 93.4387 85.1156 92.4633 86.8518 90.7272C88.588 88.991 89.5633 86.6362 89.5633 84.1809V79.2867L96.6393 86.3627C97.0709 86.7941 97.6207 87.0879 98.2192 87.2069C98.8178 87.326 99.4381 87.2648 100.002 87.0313C100.566 86.7978 101.048 86.4024 101.387 85.895C101.726 85.3877 101.907 84.7912 101.907 84.1809V59.4936C101.907 58.8834 101.726 58.2869 101.387 57.7795C101.048 57.2722 100.566 56.8767 100.002 56.6432C99.4381 56.4097 98.8178 56.3486 98.2192 56.4676C97.6207 56.5866 97.0709 56.8804 96.6393 57.3119L89.5633 64.3879V59.4936C89.5633 57.0383 88.588 54.6836 86.8518 52.9474C85.1156 51.2112 82.7609 50.2359 80.3056 50.2359H49.4464Z" fill="white"/>
</svg>
