<svg width="38" height="110" viewBox="0 0 38 110" fill="none" xmlns="http://www.w3.org/2000/svg">
<path d="M25.4371 25.4369C25.4371 11.6707 14.2774 0.511032 0.511261 0.511032V36.5879H25.4371V25.4369Z" fill="#2E9DFB" stroke="#2E9DFB" stroke-width="1.01948"/>
<rect width="24.8626" height="36.7308" transform="matrix(-1.00254 0 0 1.00254 25.4371 36.5879)" fill="#2E9DFB" stroke="#2E9DFB" stroke-width="1.01948"/>
<path fill-rule="evenodd" clip-rule="evenodd" d="M24.9845 89.3151C25.2814 87.7768 25.4369 86.1881 25.4369 84.5631V73.4121H0.511108V109.489C6.54708 109.489 12.082 107.343 16.3947 103.774C20.6974 106.64 27.5966 109.365 35.932 107.849C33.6362 106.865 24.781 100.962 25.1089 89.1547C25.0691 89.2094 25.0277 89.2628 24.9845 89.3151Z" fill="#2E9DFB"/>
<path d="M24.9845 89.3151L25.3785 89.6405L24.4827 89.2182L24.9845 89.3151ZM25.4369 73.4121V72.901H25.948V73.4121H25.4369ZM0.511108 73.4121H7.26636e-05V72.901H0.511108V73.4121ZM0.511108 109.489V110H7.26636e-05V109.489H0.511108ZM16.3947 103.774L16.0689 103.38L16.3617 103.138L16.6781 103.348L16.3947 103.774ZM35.932 107.849L36.1333 107.379L37.6938 108.048L36.0234 108.352L35.932 107.849ZM25.1089 89.1547L24.6956 88.8541L25.6656 87.5205L25.6198 89.1689L25.1089 89.1547ZM25.948 84.5631C25.948 86.2208 25.7894 87.8419 25.4863 89.4119L24.4827 89.2182C24.7735 87.7117 24.9259 86.1554 24.9259 84.5631H25.948ZM25.948 73.4121V84.5631H24.9259V73.4121H25.948ZM0.511108 72.901H25.4369V73.9231H0.511108V72.901ZM7.26636e-05 109.489V73.4121H1.02215V109.489H7.26636e-05ZM16.7206 104.167C12.3196 107.81 6.67038 110 0.511108 110V108.978C6.42378 108.978 11.8443 106.877 16.0689 103.38L16.7206 104.167ZM36.0234 108.352C27.5252 109.897 20.4932 107.118 16.1114 104.199L16.6781 103.348C20.9015 106.162 27.6679 108.832 35.8406 107.346L36.0234 108.352ZM25.6198 89.1689C25.4597 94.9313 27.5377 99.2439 29.9356 102.241C32.3435 105.251 35.0637 106.921 36.1333 107.379L35.7307 108.319C34.5045 107.793 31.6491 106.019 29.1375 102.88C26.6158 99.7277 24.4302 95.185 24.5981 89.1405L25.6198 89.1689ZM24.5905 88.9896C24.6271 88.9453 24.6621 88.9002 24.6956 88.8541L25.5222 89.4553C25.4762 89.5186 25.4282 89.5804 25.3785 89.6405L24.5905 88.9896Z" fill="#2E9DFB"/>
</svg>
